<?xml version="1.0" standalone="no"?>
<!DOCTYPE svg PUBLIC "-//W3C//DTD SVG 20010904//EN"
 "http://www.w3.org/TR/2001/REC-SVG-20010904/DTD/svg10.dtd">
<svg version="1.0" xmlns="http://www.w3.org/2000/svg"
 width="225.000000pt" height="225.000000pt" viewBox="0 0 225.000000 225.000000"
 preserveAspectRatio="xMidYMid meet">

<g transform="translate(0.000000,225.000000) scale(0.100000,-0.100000)"
fill="#000000" stroke="none">
<path d="M1050 1600 c113 -4 230 -13 260 -19 324 -67 549 -193 633 -355 28
-54 32 -71 32 -141 0 -68 -5 -88 -28 -133 -70 -134 -221 -241 -439 -311 -143
-45 -251 -62 -453 -70 l-180 -8 205 -1 c113 -1 247 3 298 8 568 60 928 355
783 643 -36 73 -57 97 -135 161 -108 88 -276 159 -479 202 -113 24 -144 26
-412 29 -281 3 -283 3 -85 -5z m626 -82 c214 -70 377 -183 435 -303 34 -71 34
-189 0 -258 -47 -96 -171 -198 -319 -263 -86 -37 -234 -82 -296 -89 -27 -4
-12 3 42 20 185 56 307 122 403 215 145 142 154 325 23 470 -81 90 -240 180
-404 229 -99 30 -103 32 -50 25 25 -3 100 -24 166 -46z"/>
<path d="M788 1593 c12 -2 30 -2 40 0 9 3 -1 5 -23 4 -22 0 -30 -2 -17 -4z"/>
<path d="M723 1583 c9 -2 23 -2 30 0 6 3 -1 5 -18 5 -16 0 -22 -2 -12 -5z"/>
<path d="M668 1573 c6 -2 18 -2 25 0 6 3 1 5 -13 5 -14 0 -19 -2 -12 -5z"/>
<path d="M595 1560 c-25 -11 1 -11 35 0 20 6 21 8 5 8 -11 0 -29 -3 -40 -8z"/>
<path d="M467 1520 c-102 -38 -193 -89 -267 -151 -55 -45 -127 -135 -118 -145
3 -2 19 18 36 45 63 96 192 183 367 247 50 18 83 33 75 33 -8 0 -50 -13 -93
-29z"/>
<path d="M289 1378 c-12 -24 -43 -84 -70 -134 l-49 -91 36 1 c35 1 37 3 90
101 29 55 57 101 62 103 5 1 15 -11 22 -28 11 -26 18 -30 50 -30 l37 0 -31 60
-31 60 -47 0 c-46 0 -48 -1 -69 -42z"/>
<path d="M648 1363 c-9 -37 4 -103 22 -113 13 -7 21 -7 25 0 3 5 1 10 -4 10
-15 0 -14 67 2 74 10 5 10 7 0 12 -7 3 -13 12 -13 20 0 20 -27 17 -32 -3z"/>
<path d="M1340 1365 c0 -8 -5 -15 -12 -15 -9 0 -9 -3 0 -12 7 -7 12 -29 12
-49 0 -28 5 -38 19 -42 27 -7 33 2 16 20 -20 19 -19 63 0 63 20 0 19 6 -5 30
-24 24 -30 25 -30 5z"/>
<path d="M520 1311 c0 -43 23 -76 47 -67 8 3 21 6 29 6 10 0 14 14 14 50 0 28
-4 50 -10 50 -5 0 -10 -18 -10 -39 0 -24 -5 -41 -14 -44 -20 -8 -26 2 -26 45
0 27 -4 38 -15 38 -11 0 -15 -11 -15 -39z"/>
<path d="M732 1338 c-21 -21 -14 -66 13 -84 23 -15 27 -15 50 0 17 11 25 26
25 44 0 35 -16 52 -50 52 -14 0 -31 -5 -38 -12z m58 -18 c11 -21 -2 -60 -20
-60 -5 0 -14 9 -20 20 -11 21 2 60 20 60 5 0 14 -9 20 -20z"/>
<path d="M856 1334 c-37 -36 3 -105 50 -87 17 6 16 8 -6 13 -33 8 -40 54 -12
69 11 6 22 7 26 4 3 -3 6 -1 6 5 0 17 -46 15 -64 -4z"/>
<path d="M950 1342 c0 -5 10 -8 21 -8 34 1 33 -21 -1 -27 -24 -5 -30 -12 -30
-31 0 -28 10 -33 54 -28 31 4 32 4 26 50 -5 44 -7 47 -37 50 -18 2 -33 -1 -33
-6z m50 -56 c0 -20 -19 -31 -32 -18 -6 6 -7 15 -4 21 10 16 36 13 36 -3z"/>
<path d="M1054 1299 c1 -32 5 -49 13 -49 8 0 13 14 13 35 0 22 6 38 15 41 24
10 17 21 -13 22 -28 1 -29 -1 -28 -49z"/>
<path d="M1142 1338 c-13 -13 -16 -57 -4 -75 10 -16 58 -27 66 -15 3 5 -8 12
-24 16 -41 8 -38 26 5 26 27 0 35 4 35 18 0 24 -19 42 -45 42 -12 0 -26 -5
-33 -12z m39 -26 c-28 -4 -40 6 -21 18 9 6 20 4 29 -3 12 -10 11 -13 -8 -15z"/>
<path d="M1245 1333 c-4 -12 2 -24 20 -39 27 -22 24 -34 -9 -34 -19 -1 -19 -2
-4 -11 12 -7 24 -6 38 1 26 14 26 36 0 52 -27 17 -25 36 3 41 16 3 14 5 -9 6
-22 1 -34 -4 -39 -16z"/>
<path d="M342 1235 c-12 -25 -11 -25 41 -25 49 0 77 -12 77 -32 0 -4 -5 -8
-11 -8 -39 0 -53 -101 -20 -141 16 -20 31 -25 88 -29 55 -4 68 -8 71 -23 7
-36 -16 -47 -99 -47 -78 0 -79 0 -79 -26 l0 -25 99 3 99 3 -54 -101 c-30 -56
-54 -104 -54 -108 0 -4 14 -6 32 -4 29 3 36 11 84 103 29 55 57 101 62 103 4
1 16 -13 25 -33 14 -29 22 -35 47 -35 16 0 30 3 30 7 0 4 -12 31 -27 60 -25
47 -31 53 -60 53 -32 0 -33 2 -33 39 0 62 -24 83 -106 90 -55 5 -69 9 -72 24
-7 36 16 47 99 47 78 0 79 0 79 25 0 24 -2 25 -67 25 l-68 0 -17 40 -17 40
-69 0 c-64 0 -70 -2 -80 -25z m161 -52 c-7 -2 -19 -2 -25 0 -7 3 -2 5 12 5 14
0 19 -2 13 -5z m147 -247 c0 -2 -7 -7 -16 -10 -8 -3 -12 -2 -9 4 6 10 25 14
25 6z"/>
<path d="M61 1179 c-6 -18 -10 -44 -10 -58 1 -21 3 -20 8 9 4 19 11 45 15 58
4 12 5 22 3 22 -3 0 -10 -14 -16 -31z"/>
<path d="M990 1140 c0 -5 7 -10 15 -10 8 0 15 5 15 10 0 6 -7 10 -15 10 -8 0
-15 -4 -15 -10z"/>
<path d="M1150 1140 c0 -5 5 -10 10 -10 6 0 10 5 10 10 0 6 -4 10 -10 10 -5 0
-10 -4 -10 -10z"/>
<path d="M690 1091 c-17 -32 -11 -60 15 -77 20 -13 31 -14 48 -6 22 10 22 11
-4 11 -15 1 -32 8 -39 16 -11 13 -7 15 24 15 28 0 36 4 36 18 0 41 -60 59 -80
23z m60 -12 c0 -5 -9 -9 -20 -9 -19 0 -26 11 -14 23 8 8 34 -3 34 -14z"/>
<path d="M800 1053 c0 -34 4 -52 10 -48 6 3 10 19 10 36 0 18 7 33 20 41 28
18 25 25 -10 25 -30 0 -30 -1 -30 -54z"/>
<path d="M886 1068 c8 -24 16 -49 19 -55 8 -24 34 -1 49 45 9 25 14 47 12 50
-10 9 -25 -10 -31 -38 -8 -36 -20 -32 -28 10 -4 17 -13 30 -21 30 -13 0 -13
-5 0 -42z"/>
<path d="M992 1060 c4 -65 22 -65 26 0 2 40 0 50 -13 50 -12 0 -15 -10 -13
-50z"/>
<path d="M1068 1099 c-25 -14 -24 -75 1 -89 23 -12 51 -13 51 -2 0 4 -10 12
-22 17 -30 13 -32 58 -3 63 11 2 24 8 30 13 13 13 -35 11 -57 -2z"/>
<path d="M1150 1055 c0 -30 5 -55 10 -55 6 0 10 25 10 55 0 30 -4 55 -10 55
-5 0 -10 -25 -10 -55z"/>
<path d="M1212 1098 c-29 -29 -3 -98 37 -98 40 0 68 69 39 98 -15 15 -61 15
-76 0z m61 -22 c8 -21 -4 -56 -19 -56 -18 0 -35 34 -28 54 8 20 40 21 47 2z"/>
<path d="M51 1045 c-2 -50 54 -152 117 -214 81 -79 255 -177 347 -195 17 -4 7
2 -21 13 -244 91 -403 232 -434 385 -7 35 -8 37 -9 11z"/>
<path d="M1615 901 c-6 -11 9 -23 19 -14 9 9 7 23 -3 23 -6 0 -12 -4 -16 -9z"/>
<path d="M947 877 c-5 -12 -2 -42 9 -94 4 -23 44 -34 44 -13 0 6 -4 10 -10 10
-5 0 -10 16 -10 35 0 19 5 35 10 35 6 0 10 5 10 11 0 5 -4 7 -10 4 -5 -3 -10
1 -10 9 0 19 -26 21 -33 3z"/>
<path d="M1456 874 c-3 -8 -2 -23 3 -32 4 -9 6 -22 4 -29 -6 -17 15 -53 32
-53 8 0 15 5 15 10 0 6 -4 10 -10 10 -5 0 -10 16 -10 35 0 25 4 35 16 35 8 0
12 5 9 10 -4 6 -11 8 -16 5 -5 -4 -9 1 -9 9 0 21 -26 21 -34 0z"/>
<path d="M827 863 c-10 -10 -8 -62 3 -83 8 -14 20 -19 50 -17 l40 1 0 48 c0
36 -4 48 -15 48 -11 0 -15 -11 -15 -40 0 -33 -3 -40 -20 -40 -17 0 -20 7 -20
45 0 42 -7 54 -23 38z"/>
<path d="M1042 854 c-41 -28 -19 -94 32 -94 31 0 46 19 46 57 0 22 -6 36 -19
43 -26 13 -33 13 -59 -6z m54 -28 c7 -31 -1 -46 -27 -46 -14 0 -19 7 -19 28 0
48 35 61 46 18z"/>
<path d="M1150 813 c0 -29 5 -53 10 -53 6 0 10 15 10 33 0 17 5 39 10 47 15
24 34 -4 32 -45 -2 -25 1 -35 12 -35 10 0 16 13 18 43 2 29 8 42 18 42 10 0
16 -13 18 -42 4 -59 22 -54 22 6 0 53 -16 69 -49 51 -10 -5 -21 -6 -25 -3 -3
4 -22 7 -41 8 l-35 1 0 -53z"/>
<path d="M1352 854 c-24 -17 -30 -62 -10 -82 7 -7 24 -12 40 -12 45 0 65 61
30 93 -23 21 -32 21 -60 1z m51 -25 c8 -29 -2 -49 -23 -49 -21 0 -33 25 -25
51 8 26 41 24 48 -2z"/>
<path d="M1540 816 c0 -31 5 -56 10 -56 6 0 10 15 10 34 0 24 7 39 21 49 12 9
16 18 10 21 -5 4 -13 2 -16 -4 -5 -8 -11 -7 -21 1 -12 10 -14 2 -14 -45z"/>
<path d="M1620 868 c-1 -2 -3 -27 -6 -55 -3 -43 -1 -53 11 -53 11 0 15 12 15
49 0 28 -4 53 -10 56 -5 3 -10 5 -10 3z"/>
<path d="M1670 859 c0 -5 9 -9 20 -9 25 0 25 -5 2 -38 -36 -52 -36 -52 12 -52
49 0 64 16 20 22 l-25 3 25 34 c14 19 24 36 22 39 -10 9 -76 10 -76 1z"/>
<path d="M666 754 c-3 -9 -6 -18 -6 -20 0 -2 23 -4 50 -4 46 0 53 -3 68 -30
13 -24 24 -30 50 -30 l32 0 -25 50 -25 50 -69 0 c-54 0 -70 -4 -75 -16z"/>
<path d="M590 614 c25 -8 63 -17 85 -19 22 -3 6 4 -35 14 -86 23 -116 26 -50
5z"/>
<path d="M733 583 c9 -2 23 -2 30 0 6 3 -1 5 -18 5 -16 0 -22 -2 -12 -5z"/>
<path d="M798 573 c12 -2 32 -2 45 0 12 2 2 4 -23 4 -25 0 -35 -2 -22 -4z"/>
</g>
</svg>
